<svg id="icon" viewBox="0 0 16 16" xmlns="http://www.w3.org/2000/svg">
	<path fill-rule="evenodd" clip-rule="evenodd" d="M1.7205 7.83334C1.77949 7.95011 1.86624 8.1128 1.98169 8.30676C2.22879 8.7219 2.60426 9.27496 3.11636 9.82645C4.14084 10.9297 5.68403 12 7.83329 12C9.98255 12 11.5257 10.9297 12.5502 9.82645C13.0623 9.27496 13.4378 8.7219 13.6849 8.30676C13.8003 8.1128 13.8871 7.95011 13.9461 7.83334C13.8871 7.71657 13.8003 7.55387 13.6849 7.35991C13.4378 6.94478 13.0623 6.39172 12.5502 5.84023C11.5257 4.73694 9.98255 3.66667 7.83329 3.66667C5.68403 3.66667 4.14084 4.73694 3.11636 5.84023C2.60426 6.39172 2.22879 6.94478 1.98169 7.35991C1.86624 7.55387 1.77949 7.71657 1.7205 7.83334ZM14.5 7.83334C14.9595 7.63638 14.9594 7.63617 14.9593 7.63595L14.9591 7.63541L14.9585 7.634L14.9567 7.62993L14.9509 7.61678C14.9461 7.60584 14.9392 7.59057 14.9303 7.57126C14.9124 7.53266 14.8864 7.47787 14.8521 7.40921C14.7835 7.27197 14.6813 7.07884 14.5442 6.84843C14.2705 6.38856 13.8543 5.77496 13.283 5.15978C12.1408 3.92974 10.3507 2.66667 7.83329 2.66667C5.31589 2.66667 3.52574 3.92974 2.38356 5.15978C1.81232 5.77496 1.39613 6.38856 1.1224 6.84843C0.985249 7.07884 0.883087 7.27197 0.814464 7.40921C0.780134 7.47787 0.754141 7.53266 0.73631 7.57126C0.727392 7.59057 0.720511 7.60584 0.715643 7.61678L0.709848 7.62993L0.708077 7.634L0.707472 7.63541L0.707239 7.63595C0.707142 7.63617 0.707053 7.63638 1.16663 7.83334L0.707053 7.63638C0.65315 7.76215 0.65315 7.90452 0.707053 8.0303L1.16663 7.83334C0.707053 8.0303 0.707142 8.03051 0.707239 8.03073L0.707472 8.03127L0.708077 8.03267L0.709848 8.03675L0.715643 8.04989C0.720511 8.06084 0.727392 8.07611 0.73631 8.09541C0.754141 8.13402 0.780134 8.18881 0.814464 8.25747C0.883087 8.39471 0.985249 8.58784 1.1224 8.81825C1.39613 9.27811 1.81232 9.89172 2.38356 10.5069C3.52574 11.7369 5.31589 13 7.83329 13C10.3507 13 12.1408 11.7369 13.283 10.5069C13.8543 9.89172 14.2705 9.27811 14.5442 8.81825C14.6813 8.58784 14.7835 8.39471 14.8521 8.25747C14.8864 8.18881 14.9124 8.13402 14.9303 8.09541C14.9392 8.07611 14.9461 8.06084 14.9509 8.04989L14.9567 8.03675L14.9585 8.03267L14.9591 8.03127L14.9593 8.03073C14.9594 8.03051 14.9595 8.0303 14.5 7.83334ZM14.5 7.83334L14.9595 8.0303C15.0134 7.90452 15.0134 7.76215 14.9595 7.63638L14.5 7.83334Z" />
	<path fill-rule="evenodd" clip-rule="evenodd" d="M7.83325 6.33334C7.00482 6.33334 6.33325 7.00492 6.33325 7.83334C6.33325 8.66177 7.00482 9.33334 7.83325 9.33334C8.66168 9.33334 9.33325 8.66177 9.33325 7.83334C9.33325 7.00492 8.66168 6.33334 7.83325 6.33334ZM5.33325 7.83334C5.33325 6.45263 6.45254 5.33334 7.83325 5.33334C9.21396 5.33334 10.3333 6.45263 10.3333 7.83334C10.3333 9.21406 9.21396 10.3333 7.83325 10.3333C6.45254 10.3333 5.33325 9.21406 5.33325 7.83334Z" />
</svg>
