<svg id="icon" viewBox="0 0 24 24" xmlns="http://www.w3.org/2000/svg">
	<path fill-rule="evenodd" clip-rule="evenodd" d="M8.5 3.75C8.5 3.49392 8.63559 3.17507 8.90533 2.90533C9.17507 2.63559 9.49392 2.5 9.75 2.5H13.75C14.0061 2.5 14.3249 2.63559 14.5947 2.90533C14.8644 3.17507 15 3.49392 15 3.75V5H8.5V3.75ZM7 5V3.75C7 3.00608 7.36441 2.32493 7.84467 1.84467C8.32493 1.36441 9.00608 1 9.75 1H13.75C14.4939 1 15.1751 1.36441 15.6553 1.84467C16.1356 2.32493 16.5 3.00608 16.5 3.75V5H18.75H20.75C21.1642 5 21.5 5.33579 21.5 5.75C21.5 6.16421 21.1642 6.5 20.75 6.5H19.5V19.75C19.5 20.4939 19.1356 21.1751 18.6553 21.6553C18.1751 22.1356 17.4939 22.5 16.75 22.5H6.75C6.00608 22.5 5.32493 22.1356 4.84467 21.6553C4.36441 21.1751 4 20.4939 4 19.75V6.5H2.75C2.33579 6.5 2 6.16421 2 5.75C2 5.33579 2.33579 5 2.75 5H4.75H7ZM15.75 6.5H7.75H5.5V19.75C5.5 20.0061 5.63559 20.3249 5.90533 20.5947C6.17507 20.8644 6.49392 21 6.75 21H16.75C17.0061 21 17.3249 20.8644 17.5947 20.5947C17.8644 20.3249 18 20.0061 18 19.75V6.5H15.75Z" />
</svg>
