<svg id="icon" viewBox="0 0 24 24" xmlns="http://www.w3.org/2000/svg">
	<path
		d="M15.75 21.5H4.75C4.02 21.5 3.33 21.21 2.81 20.69C2.29 20.17 2 19.48 2 18.75V7.75C2 7.02 2.29 6.33 2.81 5.81C3.33 5.29 4.02 5 4.75 5H10.75C11.16 5 11.5 5.34 11.5 5.75C11.5 6.16 11.16 6.5 10.75 6.5H4.75C4.42 6.5 4.1 6.63 3.87 6.87C3.64 7.11 3.5 7.43 3.5 7.75V18.75C3.5 19.08 3.63 19.4 3.87 19.63C4.11 19.86 4.42 20 4.75 20H15.75C16.08 20 16.4 19.87 16.63 19.63C16.86 19.39 17 19.08 17 18.75V12.75C17 12.34 17.34 12 17.75 12C18.16 12 18.5 12.34 18.5 12.75V18.75C18.5 19.48 18.21 20.17 17.69 20.69C17.17 21.21 16.48 21.5 15.75 21.5ZM9.75 14.5C9.56 14.5 9.37 14.43 9.22 14.28C8.93 13.99 8.93 13.51 9.22 13.22L18.94 3.5H14.75C14.34 3.5 14 3.16 14 2.75C14 2.34 14.34 2 14.75 2H20.76C20.86 2 20.95 2.02 21.03 2.06C21.12 2.1 21.2 2.15 21.28 2.22C21.35 2.29 21.41 2.38 21.44 2.46C21.48 2.54 21.49 2.64 21.5 2.73V8.75C21.5 9.16 21.16 9.5 20.75 9.5C20.34 9.5 20 9.16 20 8.75V4.56L10.28 14.28C10.13 14.43 9.94 14.5 9.75 14.5Z"/>
</svg>
