<svg id="icon" viewBox="0 0 24 24" xmlns="http://www.w3.org/2000/svg">
	<path fill-rule="evenodd" clip-rule="evenodd" d="M19.7003 2.6442C19.4283 2.53829 19.1368 2.48974 18.8446 2.5018C18.5524 2.51386 18.266 2.58624 18.0039 2.71414C17.7418 2.84204 17.5098 3.02256 17.3225 3.2439C17.3091 3.25976 17.295 3.27506 17.2803 3.28976L3.92118 16.6489L2.81893 20.6905L6.86052 19.5883L20.2197 6.22909C20.2369 6.21193 20.2548 6.19561 20.2736 6.18019C20.4981 5.99551 20.6811 5.76672 20.8111 5.50859C20.9411 5.25048 21.0154 4.96855 21.0295 4.68073C21.0436 4.39292 20.9972 4.10525 20.893 3.83599C20.7889 3.56671 20.6293 3.32155 20.424 3.11628C20.2187 2.91099 19.9723 2.75012 19.7003 2.6442ZM18.7827 1.00308C19.2816 0.982494 19.7794 1.06533 20.2445 1.24642C20.7096 1.42752 21.132 1.70301 21.4847 2.05562C21.8373 2.40824 22.1124 2.83026 22.2921 3.29494C22.4718 3.75964 22.5521 4.2566 22.5277 4.75408C22.5034 5.25155 22.3749 5.73835 22.1507 6.18339C21.9323 6.61696 21.6278 7.00149 21.2561 7.31401L7.78035 20.7898C7.68806 20.882 7.57328 20.9487 7.44736 20.983L1.94736 22.483C1.6877 22.5538 1.41 22.4801 1.21969 22.2898C1.02937 22.0994 0.955628 21.8217 1.02644 21.5621L2.52644 16.0621C2.56079 15.9362 2.6274 15.8214 2.71969 15.7291L16.1989 2.24986C16.5171 1.88075 16.9075 1.5801 17.3461 1.36607C17.7946 1.14722 18.2839 1.02366 18.7827 1.00308Z" />
	<path fill-rule="evenodd" clip-rule="evenodd" d="M14.2197 4.22919C14.5126 3.9363 14.9874 3.9363 15.2803 4.22919L19.2803 8.22919C19.5732 8.52208 19.5732 8.99696 19.2803 9.28985C18.9874 9.58274 18.5126 9.58274 18.2197 9.28985L14.2197 5.28985C13.9268 4.99696 13.9268 4.52208 14.2197 4.22919Z"/>
</svg>
