<svg id="icon" viewBox="0 0 197 32" xmlns="http://www.w3.org/2000/svg">
	<g clip-path="url(#clip0_28_1906)">
		<path
			d="M13.0887 23.267C16.5943 23.267 20.1 23.267 23.6056 23.267C25.8201 23.267 32.6442 27.7458 33.1557 29.798C33.293 30.3407 32.27 31.7817 31.7709 31.7879C26.5249 31.844 20.8735 33.26 17.0435 27.8706C13.7499 23.2296 8.9842 22.768 3.82552 23.186C2.67776 23.2795 1.46139 22.5123 0.28244 22.138C0.918698 21.1587 1.3803 19.986 2.20993 19.2249C8.62864 13.3302 15.0785 7.46042 21.647 1.7341C22.6949 0.817143 24.3417 0.392971 25.7764 0.174648C27.498 -0.0873406 29.307 -0.0124869 31.0598 0.149696C32.4072 0.274453 33.7234 0.761002 35.052 1.08537C34.3222 2.22689 33.7982 3.5805 32.8376 4.46627C27.0364 9.81207 21.1355 15.0456 15.2719 20.3228C14.436 21.0713 13.6189 21.8386 12.7955 22.5996C12.8953 22.8242 12.9889 23.0487 13.0887 23.2733V23.267Z"/>
		<path
			d="M76.9577 20.6908H62.8977C67.5511 26.5981 72.3043 21.0963 77.7811 21.7762C75.9035 23.5415 74.7994 25.4815 73.3959 25.7248C70.146 26.2862 66.6591 26.5357 63.4466 25.9493C60.3838 25.3879 59.2049 22.5248 59.2548 19.4558C59.3047 16.4803 60.6209 13.9977 63.5651 13.3427C66.2162 12.7501 69.123 12.5567 71.7928 12.9809C75.4856 13.5673 77.0513 16.1871 76.9577 20.6971V20.6908ZM73.0528 17.9774C69.9963 14.6651 65.2181 14.8772 63.9394 17.9774H73.0528Z"/>
		<path
			d="M159.908 21.4643C162.129 22.2191 164.306 23.3045 166.589 23.6288C168.853 23.9532 171.224 23.5103 173.55 23.4043L173.613 22.0132C172.627 21.7513 171.66 21.3832 170.662 21.2335C167.899 20.8218 165.054 20.747 162.391 20.0171C161.355 19.7302 160.102 18.0585 160.052 16.9669C160.002 15.8253 161.199 13.6795 161.985 13.6109C166.233 13.2678 170.537 13.2803 174.792 13.5485C175.64 13.6047 176.389 15.3076 176.95 16.6175C172.409 16.8359 168.123 14.1661 163.832 16.3244C163.794 16.6612 163.757 16.998 163.72 17.3349C165.772 17.5969 167.83 17.8464 169.882 18.1209C171.523 18.3392 173.307 18.2643 174.748 18.938C175.858 19.4557 177.193 20.8967 177.231 21.9758C177.274 23.2421 176.339 25.2943 175.297 25.7248C170.731 27.6273 165.965 27.5025 161.443 25.4378C160.426 24.9762 159.846 23.5478 159.066 22.5622C159.353 22.1941 159.634 21.8261 159.921 21.4581L159.908 21.4643Z"/>
		<path
			d="M196.718 20.6846H182.676C187.298 26.5482 192.102 21.1712 196.512 21.7326C195.027 26.0055 190.592 27.8082 185.134 26.5918C180.481 25.5563 178.447 22.5809 179.27 18.0023C179.345 17.5969 179.408 17.179 179.557 16.7985C180.88 13.4425 185.839 11.671 190.954 12.7189C194.983 13.5423 196.842 15.9501 196.711 20.6784L196.718 20.6846ZM183.431 17.9025H192.619C190.28 14.7524 185.72 14.74 183.431 17.9025Z"/>
		<path
			d="M116.824 26.6854C115.57 26.598 114.559 26.5294 113.212 26.4359C113.212 24.1341 113.224 21.9821 113.212 19.83C113.193 17.0604 111.627 15.9563 109.026 16.0062C104.666 16.0873 102.689 18.0834 102.67 22.4125C102.67 23.6538 102.67 24.8951 102.67 26.3797H98.946C98.946 20.7657 98.8337 15.1953 99.0708 9.64365C99.1082 8.80154 100.78 8.02805 101.697 7.22961L102.595 7.83468V14.2035C105.596 13.6109 108.265 12.7376 110.973 12.6316C114.846 12.4819 116.892 14.6838 117.036 18.5513C117.117 20.7283 117.054 22.9115 117.036 25.0885C117.036 25.4877 116.942 25.8932 116.836 26.6978L116.824 26.6854Z"/>
		<path
			d="M128.289 12.5255C134.583 12.5754 137.72 15.6881 136.953 21.1025C136.922 21.3084 136.909 21.5205 136.866 21.7201C135.918 25.8121 130.672 27.9205 124.877 26.5419C120.254 25.4378 118.171 22.2191 119.25 17.8339C120.167 14.1162 122.937 12.4881 128.289 12.5318V12.5255ZM128.027 23.4355C131.657 23.4729 133.21 22.3439 133.235 19.6741C133.254 17.0355 131.626 15.8191 128.058 15.8253C124.509 15.8253 122.837 17.048 122.831 19.6554C122.831 22.3314 124.29 23.4043 128.027 23.4355Z"/>
		<path
			d="M157.27 12.9497V26.8975C155.648 26.4421 154.325 26.0678 152.105 25.4378C150.645 25.7497 147.981 26.7103 145.299 26.7852C141.394 26.8912 139.423 24.7516 139.217 20.8281C139.08 18.2581 139.192 15.6756 139.192 12.8936H143.047C143.047 15.0581 142.997 17.1103 143.06 19.1563C143.153 22.3439 144.339 23.398 147.532 23.2733C151.768 23.1049 153.546 21.1961 153.465 16.892C153.396 13.0308 153.72 12.669 157.276 12.9497H157.27Z"/>
		<path
			d="M96.7628 18.7758C94.9413 18.0647 93.4443 17.678 92.1468 16.9357C89.5706 15.4636 86.9382 15.3949 84.3932 16.6176C81.9979 17.7716 81.9979 21.9758 84.5055 22.6308C86.8259 23.2359 89.502 22.768 91.9721 22.4187C93.4193 22.2129 94.7729 21.3146 96.8127 20.4601C96.5507 21.8573 96.5632 22.3563 96.3698 22.7618C94.7355 26.2113 89.6953 27.7895 84.5554 26.4983C80.5569 25.494 78.6731 23.0238 78.9164 19.1127C78.9413 18.701 78.9663 18.2768 79.0598 17.8776C79.902 14.2472 82.8961 12.4881 88.1359 12.5255C93.3195 12.563 95.6774 14.085 96.7628 18.7696V18.7758Z"/>
		<path
			d="M47.1846 16.3493C45.4255 16.2557 43.2672 16.1123 44.6645 12.8437C45.438 12.7501 46.33 12.6503 47.3967 12.5193C47.8208 10.6043 47.6088 7.81598 51.2516 9.00117C51.3702 9.97427 51.5074 11.0784 51.6883 12.5567H57.5331V16.0249C55.5308 16.1248 53.6969 16.2183 51.9004 16.3056C50.6591 22.1567 50.9647 22.5684 57.5643 23.8409V26.7602C54.4392 26.8413 50.709 28.039 48.8626 25.1384C47.4092 22.8554 47.6961 19.4557 47.1784 16.3618L47.1846 16.3493Z"/>
	</g>
</svg>
