<svg id="icon" viewBox="0 0 16 16" xmlns="http://www.w3.org/2000/svg">
	<g clip-path="url(#clip0_27_1741)">
		<path fill-rule="evenodd" clip-rule="evenodd" d="M7.99998 0.833252C8.27612 0.833252 8.49998 1.05711 8.49998 1.33325V3.99992C8.49998 4.27606 8.27612 4.49992 7.99998 4.49992C7.72384 4.49992 7.49998 4.27606 7.49998 3.99992V1.33325C7.49998 1.05711 7.72384 0.833252 7.99998 0.833252ZM2.93309 2.93303C3.12836 2.73777 3.44494 2.73777 3.6402 2.93303L5.52687 4.8197C5.72213 5.01496 5.72213 5.33154 5.52687 5.52681C5.3316 5.72207 5.01502 5.72207 4.81976 5.52681L2.93309 3.64014C2.73783 3.44488 2.73783 3.12829 2.93309 2.93303ZM13.0669 2.93303C13.2621 3.12829 13.2621 3.44488 13.0669 3.64014L11.1802 5.52681C10.9849 5.72207 10.6684 5.72207 10.4731 5.52681C10.2778 5.33154 10.2778 5.01496 10.4731 4.8197L12.3598 2.93303C12.555 2.73777 12.8716 2.73777 13.0669 2.93303ZM0.833313 7.99992C0.833313 7.72378 1.05717 7.49992 1.33331 7.49992H3.99998C4.27612 7.49992 4.49998 7.72378 4.49998 7.99992C4.49998 8.27606 4.27612 8.49992 3.99998 8.49992H1.33331C1.05717 8.49992 0.833313 8.27606 0.833313 7.99992ZM11.5 7.99992C11.5 7.72378 11.7238 7.49992 12 7.49992H14.6666C14.9428 7.49992 15.1666 7.72378 15.1666 7.99992C15.1666 8.27606 14.9428 8.49992 14.6666 8.49992H12C11.7238 8.49992 11.5 8.27606 11.5 7.99992ZM5.52687 10.473C5.72213 10.6683 5.72213 10.9849 5.52687 11.1801L3.6402 13.0668C3.44494 13.2621 3.12835 13.2621 2.93309 13.0668C2.73783 12.8715 2.73783 12.555 2.93309 12.3597L4.81976 10.473C5.01502 10.2778 5.3316 10.2778 5.52687 10.473ZM10.4731 10.473C10.6684 10.2778 10.9849 10.2778 11.1802 10.473L13.0669 12.3597C13.2621 12.555 13.2621 12.8715 13.0669 13.0668C12.8716 13.2621 12.555 13.2621 12.3598 13.0668L10.4731 11.1801C10.2778 10.9849 10.2778 10.6683 10.4731 10.473ZM7.99998 11.4999C8.27612 11.4999 8.49998 11.7238 8.49998 11.9999V14.6666C8.49998 14.9427 8.27612 15.1666 7.99998 15.1666C7.72384 15.1666 7.49998 14.9427 7.49998 14.6666V11.9999C7.49998 11.7238 7.72384 11.4999 7.99998 11.4999Z" />
	</g>
</svg>
