<svg id="icon" viewBox="0 0 24 24" xmlns="http://www.w3.org/2000/svg">
	<path fill-rule="evenodd" clip-rule="evenodd" d="M2.5 3.75C2.5 3.06421 3.06421 2.5 3.75 2.5H13.75C14.4358 2.5 15 3.06421 15 3.75C15 4.16421 15.3358 4.5 15.75 4.5C16.1642 4.5 16.5 4.16421 16.5 3.75C16.5 2.23579 15.2642 1 13.75 1H3.75C2.23579 1 1 2.23579 1 3.75V13.75C1 15.2642 2.23579 16.5 3.75 16.5C4.16421 16.5 4.5 16.1642 4.5 15.75C4.5 15.3358 4.16421 15 3.75 15C3.06421 15 2.5 14.4358 2.5 13.75V3.75ZM8.5 9.75C8.5 9.05964 9.05964 8.5 9.75 8.5H19.75C20.4404 8.5 21 9.05964 21 9.75V19.75C21 20.4404 20.4404 21 19.75 21H9.75C9.05964 21 8.5 20.4404 8.5 19.75V9.75ZM9.75 7C8.23122 7 7 8.23122 7 9.75V19.75C7 21.2688 8.23122 22.5 9.75 22.5H19.75C21.2688 22.5 22.5 21.2688 22.5 19.75V9.75C22.5 8.23122 21.2688 7 19.75 7H9.75Z" />
</svg>
