<svg id="icon" viewBox="0 0 16 16" xmlns="http://www.w3.org/2000/svg">
	<path d="M13.3866 10.12C13.2733 10.12 13.1666 10.0867 13.0733 10.0067C12.86 9.83332 12.8266 9.51999 13 9.30665C13.3666 8.84665 13.6866 8.35332 13.9466 7.82665C13.5133 6.95999 11.6266 3.65999 7.83331 3.65999C7.57331 3.65999 7.30665 3.67999 7.04665 3.70665C6.77331 3.73999 6.51998 3.54665 6.48665 3.27332C6.45331 2.99999 6.64665 2.74665 6.91998 2.71332C7.21998 2.67332 7.52665 2.65999 7.82665 2.65332C12.7666 2.65332 14.8666 7.41999 14.9533 7.61999C15.0066 7.75332 15.0066 7.89999 14.9533 8.02665C14.64 8.69999 14.24 9.33332 13.7733 9.91332C13.6733 10.0333 13.5266 10.1 13.3866 10.1V10.12Z" />
	<path d="M14.8534 14.1466L11.76 11.0533L9.66002 8.95996L9.58668 8.87996L4.57335 3.86663L1.52002 0.813293C1.32668 0.61996 1.00668 0.61996 0.813351 0.813293C0.620017 1.00663 0.620017 1.32663 0.813351 1.51996L3.47335 4.17996C2.30002 5.09329 1.35335 6.27329 0.713351 7.61996C0.653351 7.74663 0.653351 7.89996 0.706684 8.03329C0.793351 8.23329 2.89335 13 7.83335 13H7.85335C9.09335 13 10.2934 12.6733 11.3534 12.06L14.1467 14.8533C14.2467 14.9533 14.3734 15 14.5 15C14.6267 15 14.7534 14.9533 14.8534 14.8533C15.0467 14.66 15.0467 14.34 14.8534 14.1466ZM6.41335 7.27329C6.41335 7.27329 6.44668 7.20663 6.46668 7.17329L8.49335 9.19996C8.49335 9.19996 8.42668 9.23996 8.39335 9.25329C8.20668 9.33329 8.01335 9.37996 7.81335 9.37996C7.60668 9.38663 7.40668 9.34663 7.22002 9.27329C7.03335 9.19996 6.86668 9.08663 6.72002 8.93996C6.58002 8.79996 6.46668 8.63329 6.39335 8.44663C6.32002 8.25996 6.28002 8.05996 6.28668 7.85329C6.28668 7.65329 6.33335 7.45996 6.41335 7.27329ZM7.84668 12C4.04002 12.0333 2.15335 8.70663 1.72002 7.83996C2.31335 6.67996 3.15335 5.67329 4.18668 4.89329L5.74002 6.44663C5.64668 6.57996 5.56668 6.71996 5.50002 6.86663C5.36002 7.17329 5.28668 7.49996 5.28668 7.83996C5.28002 8.17329 5.34002 8.50663 5.46668 8.81996C5.59335 9.13329 5.78002 9.41329 6.01335 9.65329C6.25335 9.88663 6.53335 10.0733 6.84668 10.2C7.14668 10.32 7.46002 10.38 7.78668 10.38H7.82668C8.16668 10.3733 8.49335 10.3066 8.80002 10.1666C8.95335 10.1 9.08668 10.02 9.22002 9.92663L10.6134 11.32C9.76002 11.7666 8.82002 12 7.84668 12Z" />
</svg>
