<svg id="icon" viewBox="0 0 16 16" xmlns="http://www.w3.org/2000/svg">
	<path fill-rule="evenodd" clip-rule="evenodd" d="M7.16668 2.33325C4.4973 2.33325 2.33334 4.49721 2.33334 7.16659C2.33334 9.83596 4.4973 11.9999 7.16668 11.9999C9.83605 11.9999 12 9.83596 12 7.16659C12 4.49721 9.83605 2.33325 7.16668 2.33325ZM1.33334 7.16659C1.33334 3.94492 3.94502 1.33325 7.16668 1.33325C10.3883 1.33325 13 3.94492 13 7.16659C13 8.5974 12.4849 9.9079 11.6299 10.9227L14.1869 13.4797C14.3821 13.6749 14.3821 13.9915 14.1869 14.1868C13.9916 14.382 13.675 14.382 13.4798 14.1868L10.9228 11.6298C9.908 12.4848 8.5975 12.9999 7.16668 12.9999C3.94502 12.9999 1.33334 10.3882 1.33334 7.16659Z" />
</svg>
